<svg xmlns="http://www.w3.org/2000/svg" viewBox="0 0 500 500"><defs><style>.cls-1{fill:#c54966;}</style></defs><title>WVV.TCN_FirstDelivery</title><g id="Layer_1" data-name="Layer 1"><path class="cls-1" d="M336.82,361.15l-84,48.53L171,362.48a2.66,2.66,0,1,0-2.65,4.61l84.15,48.58.25.15,55.33-31.95,31.37-18.11Z"/><path class="cls-1" d="M351.23,118.06l-31.6-18.24L317,104.43,401,153v94.39a2.66,2.66,0,1,0,5.32,0V149.88Z"/><path class="cls-1" d="M186.85,101a2.66,2.66,0,0,0-3.63-1L99.07,148.64l-.25.15V248.91h5.31v-97l81.75-47.2A2.66,2.66,0,0,0,186.85,101Z"/><path class="cls-1" d="M224.28,139V125.12h57.66V139H261v50.16H245.24V139Z"/><path class="cls-1" d="M258.33,253.35a18.94,18.94,0,0,0,8.65-2,22.1,22.1,0,0,0,7.18-6l10.35,10.16a32.19,32.19,0,0,1-11.77,9,35.07,35.07,0,0,1-15,3.39,36.23,36.23,0,0,1-13.6-2.56,33.85,33.85,0,0,1-10.93-7A32.21,32.21,0,0,1,226,248a31.87,31.87,0,0,1-2.65-13A32.29,32.29,0,0,1,226,221.91a31.86,31.86,0,0,1,7.28-10.48,34.53,34.53,0,0,1,10.94-7,35.68,35.68,0,0,1,13.55-2.57,34.65,34.65,0,0,1,7.87.92,40.91,40.91,0,0,1,7.51,2.52,32.54,32.54,0,0,1,6.59,3.93,29,29,0,0,1,5.21,5.17l-10.62,10.44a23.49,23.49,0,0,0-7.55-6.36,19.25,19.25,0,0,0-9-2.15,18.3,18.3,0,0,0-7.19,1.41,17.7,17.7,0,0,0-5.76,3.89,18.37,18.37,0,0,0-3.85,5.91,19,19,0,0,0-1.42,7.37,18.31,18.31,0,0,0,1.42,7.27,17.88,17.88,0,0,0,3.94,5.82,18.54,18.54,0,0,0,6,3.89A19.43,19.43,0,0,0,258.33,253.35Z"/><path class="cls-1" d="M223.73,280.72h14.82l29.11,37.17V280.72h14.83V344.8H268.58l-30-38.63V344.8H223.73Z"/></g></svg>