<svg xmlns="http://www.w3.org/2000/svg" viewBox="0 0 500 300"><defs><style>.cls-1{fill:#c64866;stroke:#c64866;stroke-miterlimit:10;}.cls-2{fill:#c54966;}</style></defs><title>WVV.TCN_FirstDelivery</title><g id="Layer_4" data-name="Layer 4"><path class="cls-1" d="M175.07,162.85h0l-6.86,4-10.74-6.2a.71.71,0,0,0-.55-.07.69.69,0,0,0-.44.34.71.71,0,0,0,.26,1l11.47,6.62,6.95-4h0l5.15-3-.73-1.26Z"/><path class="cls-1" d="M182.19,128.28l-5.17-3-.73,1.26,5.18,3h0l6.19,3.58v12.41a.73.73,0,0,0,1.46,0V132.28Z"/><path class="cls-1" d="M159.79,126.33a.71.71,0,0,0-.07-.55.72.72,0,0,0-1-.27l-11.47,6.62v14h1.45V133l10.74-6.2A.72.72,0,0,0,159.79,126.33Z"/><path class="cls-2" d="M48.72,135.3v-7.08H78.1v7.08H67.42v25.57h-8V135.3Z"/><path class="cls-2" d="M96.43,153.92a9.67,9.67,0,0,0,4.41-1,11.28,11.28,0,0,0,3.66-3l5.27,5.18a16.45,16.45,0,0,1-6,4.57,17.91,17.91,0,0,1-7.63,1.72,18.41,18.41,0,0,1-6.93-1.3,17.36,17.36,0,0,1-5.57-3.55A16.4,16.4,0,0,1,80,151.16a16.14,16.14,0,0,1-1.36-6.62,16.55,16.55,0,0,1,5.06-12A17.6,17.6,0,0,1,89.25,129a18.15,18.15,0,0,1,6.9-1.31,17.64,17.64,0,0,1,4,.47,21.27,21.27,0,0,1,3.83,1.28,16.7,16.7,0,0,1,3.36,2,14.67,14.67,0,0,1,2.65,2.63l-5.41,5.32a12.09,12.09,0,0,0-3.84-3.24,9.91,9.91,0,0,0-4.6-1.1,9.3,9.3,0,0,0-3.66.72,9,9,0,0,0-2.94,2,9.33,9.33,0,0,0-2,3,9.71,9.71,0,0,0-.72,3.75,9.44,9.44,0,0,0,.72,3.71,9,9,0,0,0,2,3,9.25,9.25,0,0,0,3,2A9.71,9.71,0,0,0,96.43,153.92Z"/><path class="cls-2" d="M113.18,128.22h7.55l14.83,18.93V128.22h7.56v32.65H136l-15.3-19.69v19.69h-7.55Z"/><path class="cls-2" d="M210.66,153.92a9.7,9.7,0,0,0,4.41-1,11.28,11.28,0,0,0,3.66-3L224,155a16.45,16.45,0,0,1-6,4.57,17.94,17.94,0,0,1-7.63,1.72,18.37,18.37,0,0,1-6.93-1.3,17.25,17.25,0,0,1-5.57-3.55,16.63,16.63,0,0,1,0-23.93,17.6,17.6,0,0,1,5.58-3.54,18.15,18.15,0,0,1,6.9-1.31,17.7,17.7,0,0,1,4,.47,21.27,21.27,0,0,1,3.83,1.28,16.36,16.36,0,0,1,3.35,2,14.42,14.42,0,0,1,2.66,2.63l-5.41,5.32a12,12,0,0,0-3.85-3.24,9.84,9.84,0,0,0-4.59-1.1,9.26,9.26,0,0,0-3.66.72,9,9,0,0,0-2.94,2,9.17,9.17,0,0,0-2,3,9.71,9.71,0,0,0-.72,3.75,9.44,9.44,0,0,0,.72,3.71,9,9,0,0,0,2,3,9.25,9.25,0,0,0,3,2A9.68,9.68,0,0,0,210.66,153.92Z"/><path class="cls-2" d="M260.19,144.54a16.37,16.37,0,0,1-1.35,6.6,16.57,16.57,0,0,1-3.68,5.36,17.19,17.19,0,0,1-5.55,3.57,18.62,18.62,0,0,1-13.72,0,17.19,17.19,0,0,1-5.55-3.57,16.57,16.57,0,0,1-3.68-5.36,16.81,16.81,0,0,1,0-13.2,16.68,16.68,0,0,1,3.68-5.36,17.19,17.19,0,0,1,5.55-3.57,18.62,18.62,0,0,1,13.72,0,17.19,17.19,0,0,1,5.55,3.57,16.68,16.68,0,0,1,3.68,5.36A16.37,16.37,0,0,1,260.19,144.54Zm-8.25,0a9.89,9.89,0,0,0-.7-3.75,9,9,0,0,0-1.94-3,9.2,9.2,0,0,0-13.1,0,9,9,0,0,0-1.94,3,10.42,10.42,0,0,0,0,7.51,9,9,0,0,0,1.94,3,9.2,9.2,0,0,0,13.1,0,9,9,0,0,0,1.94-3A10,10,0,0,0,251.94,144.54Z"/><path class="cls-2" d="M259.54,160.87l13.39-32.65h9.19l13.2,32.65h-8.68l-3-7.89H270.92l-3,7.89Zm13.81-14.28h7.93l-3.92-10.45Z"/><path class="cls-2" d="M297.7,160.87V128.22h8v25.56h17.21v7.09Z"/><path class="cls-2" d="M327.41,160.87V128.22h8v32.65Z"/><path class="cls-2" d="M339,135.3v-7.08h29.38v7.08H357.68v25.57h-8V135.3Z"/><path class="cls-2" d="M371.9,160.87V128.22h8v32.65Z"/><path class="cls-2" d="M419.06,144.54a16.62,16.62,0,0,1-5,12,17,17,0,0,1-5.55,3.57,18.59,18.59,0,0,1-13.71,0,17,17,0,0,1-5.55-3.57,16.6,16.6,0,0,1-3.69-5.36,16.81,16.81,0,0,1,0-13.2,16.71,16.71,0,0,1,3.69-5.36,17,17,0,0,1,5.55-3.57,18.59,18.59,0,0,1,13.71,0,17,17,0,0,1,5.55,3.57,16.55,16.55,0,0,1,3.69,5.36A16.37,16.37,0,0,1,419.06,144.54Zm-8.25,0a10.08,10.08,0,0,0-.7-3.75,9.25,9.25,0,0,0-12.13-5,9.28,9.28,0,0,0-2.92,2,8.94,8.94,0,0,0-1.93,3,10.42,10.42,0,0,0,0,7.51,9,9,0,0,0,1.93,3,9.28,9.28,0,0,0,2.92,2,9.11,9.11,0,0,0,12.13-5A10.18,10.18,0,0,0,410.81,144.54Z"/><path class="cls-2" d="M423.31,128.22h7.55l14.83,18.93V128.22h7.56v32.65h-7.09l-15.3-19.69v19.69h-7.55Z"/></g></svg>