<?xml version="1.0" encoding="UTF-8" standalone="no"?>
<!DOCTYPE svg PUBLIC "-//W3C//DTD SVG 1.1//EN" "http://www.w3.org/Graphics/SVG/1.1/DTD/svg11.dtd">
<svg xmlns="http://www.w3.org/2000/svg" version="1.1" viewBox="0 0 1712 198" width="1712.0pt" height="198.0pt">
<path d="M 0.00 0.00 L 1712.00 0.00 L 1712.00 198.00 L 0.00 198.00 L 0.00 0.00 Z" fill="#ffffff" />
<path d="M 545.04 3.39 C 562.94 13.46 580.66 23.93 598.49 34.13 C 598.53 52.42 598.48 70.72 598.51 89.01 C 598.44 91.15 598.39 93.15 596.58 94.59 C 594.54 96.27 591.57 96.17 589.66 94.34 C 588.06 92.88 588.07 91.04 587.99 89.02 C 588.01 72.73 588.00 56.43 588.00 40.13 C 571.99 30.78 555.85 21.65 539.87 12.25 C 541.62 9.31 543.26 6.31 545.04 3.39 Z" fill="#c54966" />
<path d="M 474.35 5.68 C 477.09 8.10 476.96 12.77 473.47 14.47 C 459.00 22.78 444.58 31.23 430.07 39.47 C 429.91 57.98 430.05 76.49 429.99 94.99 C 426.58 95.01 423.17 95.01 419.76 94.99 C 419.73 76.99 419.76 59.00 419.74 41.00 C 419.70 38.41 419.71 35.83 419.94 33.26 C 435.96 24.25 451.79 14.86 467.76 5.77 C 469.63 4.74 472.62 4.09 474.35 5.68 Z" fill="#c54966" />
<path d="M 232.20 19.86 C 245.80 24.09 258.15 31.62 266.91 42.99 C 259.16 50.27 251.83 57.96 244.09 65.26 C 239.66 60.07 234.87 55.42 228.81 52.18 C 220.66 47.64 211.16 46.30 201.99 47.72 C 191.96 49.50 182.57 55.40 177.01 64.00 C 167.84 77.93 167.97 97.33 178.50 110.51 C 189.19 124.28 208.62 128.92 224.72 122.71 C 232.47 119.81 238.39 114.52 243.78 108.41 C 251.04 115.79 258.65 122.80 265.84 130.25 C 257.68 140.53 246.37 147.58 234.17 152.11 C 208.27 161.58 177.38 155.75 157.20 136.81 C 143.85 124.29 135.88 106.32 135.73 88.00 C 135.27 72.67 140.01 57.42 149.12 45.08 C 156.10 35.55 165.56 28.22 176.25 23.26 C 193.51 15.08 214.06 14.03 232.20 19.86 Z" fill="#c54966" />
<path d="M 705.79 19.17 C 720.11 23.17 733.68 31.02 742.81 42.94 C 735.22 50.38 727.69 57.84 720.08 65.27 C 714.81 59.13 708.98 53.80 701.47 50.54 C 687.66 44.57 670.94 46.46 659.49 56.48 C 645.20 69.03 642.03 91.62 652.38 107.60 C 660.94 121.05 677.47 127.58 693.02 124.81 C 703.96 123.06 712.75 116.72 719.72 108.37 C 726.99 115.77 734.58 122.83 741.84 130.24 C 733.45 140.76 721.42 148.23 708.80 152.57 C 682.11 161.75 650.28 154.89 630.67 134.33 C 618.36 121.57 611.26 103.75 611.72 86.00 C 611.55 72.30 615.78 58.76 623.43 47.43 C 632.82 33.31 647.76 23.45 663.97 18.90 C 677.57 15.22 692.25 15.23 705.79 19.17 Z" fill="#c54966" />
<path d="M 814.22 16.33 C 828.43 15.44 842.63 18.05 855.24 24.76 C 869.93 32.28 881.48 45.10 887.58 60.43 C 892.31 71.98 893.54 84.65 891.80 96.98 C 888.99 116.20 877.75 133.83 861.51 144.50 C 838.97 159.36 808.56 160.87 784.66 148.35 C 770.15 141.12 758.61 128.57 752.36 113.63 C 746.77 100.68 745.63 86.02 748.32 72.23 C 751.51 56.58 760.45 41.91 773.00 32.01 C 784.77 22.79 799.30 17.29 814.22 16.33 Z" fill="#c54966" />
<path d="M 1475.30 16.40 C 1491.75 15.14 1508.34 18.81 1522.30 27.72 C 1537.19 36.91 1547.83 51.95 1552.30 68.78 C 1555.20 80.13 1555.27 92.17 1552.45 103.53 C 1548.35 119.70 1538.46 134.26 1524.64 143.68 C 1501.20 159.90 1468.74 161.13 1444.02 146.99 C 1431.78 140.14 1422.00 129.72 1415.90 117.10 C 1409.39 104.09 1407.56 89.28 1409.76 74.97 C 1412.35 59.15 1420.63 44.26 1432.79 33.79 C 1444.68 23.68 1459.74 17.57 1475.30 16.40 Z" fill="#c54966" />
<path d="M 11.31 18.31 C 51.97 18.16 93.04 18.28 133.74 18.26 C 133.77 28.16 133.75 38.07 133.76 47.98 C 118.92 48.03 104.08 47.97 89.25 48.02 C 89.25 83.51 89.26 119.00 89.24 154.48 C 78.08 154.51 66.92 154.51 55.76 154.48 C 55.74 119.00 55.75 83.51 55.75 48.02 C 40.92 47.97 26.08 48.03 11.24 47.98 C 11.30 38.10 11.14 28.19 11.31 18.31 Z" fill="#c54966" />
<path d="M 279.77 18.25 C 290.34 18.27 300.91 18.20 311.49 18.29 C 331.91 44.52 352.49 70.65 372.97 96.85 C 373.06 70.65 372.96 44.45 373.02 18.24 C 383.59 18.26 394.17 18.23 404.74 18.26 C 404.78 63.66 404.72 109.06 404.77 154.46 C 394.81 154.55 384.85 154.49 374.89 154.49 C 353.71 127.40 332.71 100.15 311.53 73.07 C 311.46 100.21 311.53 127.35 311.49 154.49 C 300.91 154.51 290.33 154.52 279.76 154.48 C 279.75 109.07 279.73 63.66 279.77 18.25 Z" fill="#c54966" />
<path d="M 945.44 18.35 C 958.19 18.08 971.06 18.35 983.83 18.23 C 1002.25 63.61 1020.58 109.09 1038.94 154.50 C 1026.81 154.53 1014.67 154.45 1002.54 154.54 C 998.26 143.66 994.23 132.68 990.05 121.76 C 972.45 121.76 954.84 121.71 937.24 121.79 C 932.93 132.70 929.03 143.83 924.43 154.61 C 912.82 154.35 901.19 154.58 889.57 154.49 C 908.05 109.33 926.77 63.36 945.44 18.35 Z" fill="#c54966" />
<path d="M 1048.55 18.23 C 1059.78 18.28 1071.00 18.23 1082.23 18.25 C 1082.28 53.75 1082.23 89.25 1082.26 124.74 C 1106.17 124.77 1130.08 124.73 1153.99 124.76 C 1154.01 134.67 1154.00 144.58 1154.00 154.49 C 1118.84 154.51 1083.67 154.51 1048.51 154.49 C 1048.52 109.07 1048.44 63.64 1048.55 18.23 Z" fill="#c54966" />
<path d="M 1172.31 18.31 C 1183.52 18.15 1194.77 18.30 1205.98 18.24 C 1206.02 63.66 1205.99 109.07 1206.00 154.49 C 1194.74 154.49 1183.48 154.55 1172.23 154.45 C 1172.32 109.21 1172.14 63.51 1172.31 18.31 Z" fill="#c54966" />
<path d="M 1220.55 18.23 C 1261.44 18.28 1302.34 18.23 1343.23 18.25 C 1343.27 28.16 1343.25 38.08 1343.24 47.99 C 1328.42 48.02 1313.59 47.98 1298.76 48.01 C 1298.75 83.49 1298.73 118.98 1298.77 154.46 C 1287.52 154.55 1276.26 154.49 1265.00 154.49 C 1264.99 118.99 1265.01 83.50 1264.99 48.01 C 1250.17 47.99 1235.34 48.01 1220.51 48.00 C 1220.51 38.08 1220.45 28.15 1220.55 18.23 Z" fill="#c54966" />
<path d="M 1357.77 18.25 C 1369.00 18.23 1380.23 18.27 1391.46 18.23 C 1391.55 63.65 1391.49 109.07 1391.49 154.49 C 1380.25 154.51 1369.00 154.52 1357.76 154.48 C 1357.75 109.07 1357.73 63.66 1357.77 18.25 Z" fill="#c54966" />
<path d="M 1572.02 18.24 C 1582.56 18.25 1593.11 18.24 1603.65 18.25 C 1624.14 44.48 1644.66 70.69 1665.22 96.86 C 1665.28 70.66 1665.22 44.46 1665.26 18.26 C 1675.83 18.23 1686.41 18.26 1696.98 18.24 C 1697.02 63.66 1696.99 109.07 1697.00 154.49 C 1687.02 154.51 1677.05 154.51 1667.07 154.49 C 1645.95 127.39 1624.94 100.21 1603.79 73.14 C 1603.72 100.24 1603.75 127.35 1603.77 154.46 C 1593.18 154.55 1582.59 154.49 1572.00 154.49 C 1572.01 109.07 1571.98 63.66 1572.02 18.24 Z" fill="#c54966" />
<path d="M 815.24 47.38 C 829.22 45.75 843.46 51.94 851.24 63.75 C 861.47 79.23 859.90 101.44 846.71 114.71 C 836.07 125.60 819.09 128.71 805.09 122.95 C 796.86 119.57 789.80 113.12 785.90 105.11 C 779.03 91.41 780.33 73.91 789.70 61.69 C 795.74 53.72 805.32 48.46 815.24 47.38 Z" fill="#ffffff" />
<path d="M 1477.24 47.38 C 1482.91 46.93 1488.56 47.23 1493.97 49.10 C 1503.43 52.26 1511.43 59.24 1515.76 68.24 C 1522.26 81.65 1520.97 99.01 1511.91 110.96 C 1504.76 120.52 1492.92 126.11 1481.00 125.78 C 1468.46 125.68 1456.27 119.06 1449.66 108.36 C 1440.81 94.34 1441.53 74.84 1451.67 61.67 C 1457.72 53.69 1467.30 48.40 1477.24 47.38 Z" fill="#ffffff" />
<path d="M 963.93 51.98 C 969.37 66.29 974.69 80.64 980.08 94.97 C 969.20 95.03 958.32 95.00 947.45 94.99 C 952.87 80.63 958.46 66.33 963.93 51.98 Z" fill="#ffffff" />
<path d="M 557.49 148.95 C 559.10 151.97 560.86 154.91 562.55 157.90 C 544.74 168.18 526.96 178.51 509.12 188.72 C 494.38 180.19 479.62 171.67 464.86 163.16 C 462.85 161.94 460.39 160.89 458.79 159.15 C 456.46 156.35 458.31 151.31 461.99 150.90 C 463.87 150.66 465.79 151.71 467.39 152.58 C 481.31 160.63 495.22 168.69 509.16 176.69 C 525.30 167.52 541.29 157.99 557.49 148.95 Z" fill="#c54966" />
</svg>