<?xml version="1.0" encoding="utf-8"?>
<!-- Generator: Adobe Illustrator 24.1.0, SVG Export Plug-In . SVG Version: 6.00 Build 0)  -->
<svg version="1.1" id="Ebene_1" xmlns="http://www.w3.org/2000/svg" xmlns:xlink="http://www.w3.org/1999/xlink" x="0px" y="0px"
	 viewBox="0 0 250 250" style="enable-background:new 0 0 250 250;" xml:space="preserve">
<style type="text/css">
	.st0{fill:#FFFFFF;}
</style>
<rect width="250" height="250"/>
<g>
	<g>
		<path class="st0" d="M112,99.2c1,2,0.9,3.7,0.4,4.5c-0.2,0.4-0.6,0.8-1,0.9c-2,0.9-3.8-1.1-4.6-2.7c-1-2-0.9-3.6-0.3-4.5
			c0.2-0.4,0.5-0.7,1-0.9C109.6,95.5,111.4,97.9,112,99.2z M107.1,97.9c-0.1,0.6,0,1.5,0.9,3.3c0.7,1.5,2.3,3.6,3.5,3
			c0.4-0.2,0.5-0.9,0.5-1c0-0.7-0.2-1.7-1.1-3.4c-1-2.1-2.1-2.9-2.6-3c-0.3,0-0.5-0.1-0.8,0.1C107.3,97.2,107.1,97.4,107.1,97.9z"/>
		<path class="st0" d="M115.4,102.4c0.9-0.5,1.1-0.7,1-1.5c-0.1-0.6-0.4-2.3-1.1-5.6c-0.4-1.9-0.6-2.6-0.7-2.8
			c-0.1-0.2-0.3-0.3-0.5-0.3c-0.3,0-0.7,0.1-0.9,0c-0.3,0-0.4-0.1-0.5-0.2c0-0.1,0.2-0.3,0.3-0.4c0.7-0.3,1.5-0.7,2-1.1
			c0.3-0.3,0.6-0.5,0.7-0.5c0.1-0.1,0.2,0.1,0.2,0.1c0.1,0.3,0.1,0.9,0.5,2.3c0.3,1.4,1.2,5.2,1.7,7.5c0.3,1.3,0.4,1.5,1.7,1.5
			c0.3,0,0.5,0.1,0.6,0.3c0,0.1-0.1,0.3-0.4,0.3c-0.5,0.1-1.3,0.2-1.9,0.4c-1.2,0.3-2.4,0.6-2.6,0.7c-0.2,0.1-0.5,0.1-0.5-0.1
			C114.8,102.8,114.9,102.6,115.4,102.4z"/>
		<path class="st0" d="M123.2,100.8c1.4-0.3,1.7-0.7,1.9-1.8c0.1-0.9,0.2-3.3,0.2-8c0-2.7,0-3.7-0.1-4.1c-0.1-0.3-0.3-0.5-0.6-0.6
			c-0.4-0.1-0.9-0.1-1.2-0.2c-0.4-0.1-0.6-0.2-0.6-0.4c0-0.2,0.3-0.4,0.6-0.4c1.1-0.2,2.3-0.4,3-0.9c0.5-0.2,1-0.5,1.1-0.5
			c0.2-0.1,0.3,0.1,0.3,0.3c0,0.5-0.1,1.2-0.1,3.3c0,2,0,7.5,0,10.8c0,1.9,0.1,2.2,1.8,2.6c0.4,0.1,0.7,0.2,0.7,0.5
			c0,0.2-0.3,0.3-0.7,0.3c-0.7,0-1.9-0.1-2.8-0.1c-1.7,0-3.4,0.1-3.8,0.1c-0.3,0-0.7-0.1-0.7-0.3C122.3,101.1,122.6,101,123.2,100.8
			z"/>
		<path class="st0" d="M132.9,101.5c1,0,1.3-0.2,1.6-0.9c0.2-0.6,0.7-2.2,1.4-5.6c0.4-1.9,0.6-2.6,0.6-2.9c0-0.2-0.1-0.4-0.3-0.5
			c-0.3-0.1-0.6-0.2-0.8-0.4c-0.3-0.1-0.3-0.2-0.3-0.4c0-0.1,0.3-0.2,0.5-0.2c0.8,0,1.6,0.1,2.3-0.1c0.4-0.1,0.8-0.2,0.9-0.2
			c0.1,0,0.2,0.1,0.1,0.2c-0.1,0.3-0.3,0.8-0.6,2.3c-0.3,1.4-1.2,5.2-1.7,7.5c-0.3,1.3-0.3,1.5,0.8,2.1c0.2,0.1,0.4,0.3,0.4,0.5
			c0,0.1-0.2,0.2-0.5,0.1c-0.5-0.1-1.3-0.4-1.9-0.5c-1.2-0.3-2.4-0.5-2.7-0.5c-0.2-0.1-0.5-0.2-0.5-0.3
			C132.2,101.5,132.4,101.5,132.9,101.5z"/>
		<path class="st0" d="M145.7,102c-1,2-2.4,3-3.4,3.1c-0.5,0.1-1,0-1.3-0.2c-1.9-1-1.4-3.7-0.6-5.3c1-2,2.3-2.9,3.4-3
			c0.4,0,0.9,0,1.3,0.2C147.1,97.8,146.4,100.6,145.7,102z M143.7,97.2c-0.5,0.3-1.2,0.9-2.1,2.7c-0.8,1.5-1.5,4-0.3,4.6
			c0.4,0.2,1-0.1,1.1-0.2c0.5-0.4,1.2-1.2,2.1-2.9c1.1-2.1,1-3.5,0.8-3.9c-0.1-0.2-0.3-0.4-0.5-0.6
			C144.4,96.9,144.1,96.9,143.7,97.2z"/>
	</g>
	<path class="st0" d="M110.7,107.3c-0.1,0-0.2-0.1-0.3-0.2c-0.1-0.2,0-0.4,0.1-0.4c4.4-2.1,10-3.3,15.8-3.3c5.8,0,11.4,1.2,15.7,3.3
		c0.1,0,0.1,0.1,0.2,0.2c0,0.1,0,0.2,0,0.2c-0.1,0.1-0.2,0.2-0.3,0.2c0,0-0.1,0-0.1,0c-4.3-2.1-9.8-3.2-15.5-3.2
		c-5.7,0-11.2,1.1-15.5,3.2C110.8,107.3,110.7,107.3,110.7,107.3z"/>
	<path class="st0" d="M140.4,109.3c0,0-0.1,0-0.1,0c-3.9-1.8-8.7-2.7-14-2.7c-5.2,0-10,0.9-13.9,2.7c0,0-0.1,0-0.1,0
		c-0.1,0-0.2-0.1-0.3-0.2c0-0.1,0-0.2,0-0.2c0-0.1,0.1-0.1,0.2-0.2c4-1.8,8.9-2.8,14.2-2.8c5.4,0,10.3,1,14.3,2.8
		c0.1,0,0.1,0.1,0.2,0.2c0,0.1,0,0.2,0,0.2C140.6,109.2,140.5,109.3,140.4,109.3z"/>
	<g>
		<path class="st0" d="M41.4,118.9c2.1,1.7,2.5,4,2.5,5.6c0,3.8-2.3,5.8-3.7,6.6c-1.8,0.9-3.9,1.3-5.7,1.3c-1,0-3.3-0.2-4-0.2
			c-0.8,0-2.2,0.1-2.8,0.1c-0.2,0-0.4-0.1-0.4-0.3c0-0.3,0.3-0.6,0.9-0.7c0.7-0.2,1.6-0.4,1.7-1.5c0.1-1.1,0.2-2.4,0.2-5.7
			c0-3.4,0-4.6-0.1-5.1c0-0.3-0.2-0.7-1.5-0.9c-0.6-0.1-0.9-0.3-0.9-0.5c0-0.3,0.4-0.5,1-0.5h2c0.9,0,2.6-0.2,4.3-0.2
			C37.3,116.9,39.6,117.4,41.4,118.9z M32.9,118.1c-0.1,0-0.4,0.3-0.4,0.5c0,0.6-0.1,2.6-0.1,4.4v1.7c0,3.2,0,3.6,0.1,4.4
			c0.2,1.1,0.6,1.5,0.8,1.6c0.3,0.2,1.5,0.6,2.3,0.6c0.6,0,2.8-0.6,3.9-1.8c1.2-1.2,1.8-2.8,1.8-5c0-1.9-0.6-3.6-1.9-4.8
			c-1.2-1.1-3.1-1.8-4.9-1.8C34.4,117.9,33.2,118,32.9,118.1z"/>
		<path class="st0" d="M61.1,119c1.3,3.6,3.4,8.9,3.9,10.4c0.5,1.3,0.7,1.4,2,1.9c0.5,0.2,0.7,0.4,0.7,0.7c0,0.1-0.2,0.3-0.6,0.3
			c-1.3,0-2.2-0.1-3.5-0.1c-1.1,0-1.1,0-1.9,0c-0.5,0-0.7-0.1-0.7-0.3c0-0.2,0.1-0.5,0.6-0.6c1.2-0.3,1.3-0.5,1-1.4
			c-0.2-0.7-0.8-2.3-1.1-3.1c0-0.1-0.3-0.3-0.6-0.3c-0.5,0-3.5,0-4.2,0c-0.1,0-0.3,0.2-0.4,0.3c-0.3,1-1,2.9-1,3.4
			c0,0.3,0,0.7,1.2,1c0.3,0.1,0.5,0.2,0.5,0.4c0,0.2-0.3,0.5-0.8,0.5c-0.3,0-1.3-0.1-2-0.1c-0.8,0-1.3,0.1-2.2,0.1
			c-0.4,0-0.8-0.1-0.8-0.4c0-0.2,0.2-0.5,0.7-0.6c1.2-0.3,1.7-0.8,1.9-1.4c0.8-1.6,3.4-8.1,4.6-11.4c0.1-0.2,0.1-0.5,0.2-0.7
			c0-0.1,0.1-0.2,0.2-0.3c0.3-0.2,0.6-0.5,0.9-0.7c0.1-0.1,0.4-0.3,0.5-0.3C60.4,116.6,60.5,117.3,61.1,119z M61,124.9
			c-0.3-1.2-1.6-4.5-1.8-4.9c-0.1-0.2-0.3-0.1-0.3,0c-0.5,1.3-1.3,3.3-1.8,4.9c0,0.1,0,0.2,0.2,0.2c0.4,0,3.2,0.1,3.7,0
			C61,125.2,61.1,125,61,124.9z"/>
		<path class="st0" d="M86.5,117.1c1.4,0,1.8-0.1,2-0.3c0.3-0.2,0.4-0.4,0.6-0.4c0.1,0,0.5,0.3,0.5,0.5s-0.3,1.6-0.3,3.3
			c0,0.3-0.2,0.7-0.5,0.7c-0.3,0-0.4-0.3-0.5-0.6c-0.3-1.6-0.8-1.8-1.5-1.9c-0.4,0-1.5-0.1-3.6-0.1c-0.1,0-0.3,0.2-0.3,0.3
			c-0.1,0.7-0.1,3.7-0.1,5.2c0,1.5,0,3.8,0.1,5.2c0.1,1.8,0.5,1.8,1.8,2.3c0.4,0.2,0.7,0.3,0.7,0.6c0,0.2-0.2,0.4-0.7,0.4
			c-0.2,0-2-0.1-3.5-0.1c-1.5,0-2.1,0.1-2.7,0.1c-0.5,0-0.8-0.2-0.8-0.5c0-0.2,0.2-0.4,0.7-0.5c1.8-0.5,2.2-0.5,2.2-2.2
			c0-0.5,0.1-3.1,0.1-7c0-1.5,0-2.5,0-3.2c0-0.3-0.2-0.6-0.2-0.6c-0.6,0-3.2,0-3.5,0c-0.4,0-1,0.3-1.6,1.8c-0.1,0.4-0.4,0.7-0.6,0.7
			c-0.4,0-0.5-0.3-0.5-0.9c0-0.8,0.2-1.9,0.2-3c0-0.2,0.4-0.4,0.5-0.4c0.1,0,0.2,0.1,0.4,0.2c0.4,0.3,0.6,0.4,1.4,0.4
			c1,0,0.8,0,1.6,0H86.5z"/>
		<path class="st0" d="M105.5,119c1.3,3.6,3.4,8.9,3.9,10.4c0.5,1.3,0.7,1.4,2,1.9c0.5,0.2,0.7,0.4,0.7,0.7c0,0.1-0.2,0.3-0.6,0.3
			c-1.3,0-2.2-0.1-3.5-0.1c-1.1,0-1.1,0-1.9,0c-0.5,0-0.7-0.1-0.7-0.3c0-0.2,0.1-0.5,0.6-0.6c1.2-0.3,1.3-0.5,1-1.4
			c-0.2-0.7-0.8-2.3-1.1-3.1c0-0.1-0.3-0.3-0.6-0.3c-0.5,0-3.5,0-4.2,0c-0.1,0-0.3,0.2-0.4,0.3c-0.3,1-1,2.9-1,3.4
			c0,0.3,0,0.7,1.2,1c0.3,0.1,0.5,0.2,0.5,0.4c0,0.2-0.3,0.5-0.8,0.5c-0.3,0-1.3-0.1-2-0.1c-0.8,0-1.3,0.1-2.2,0.1
			c-0.4,0-0.8-0.1-0.8-0.4c0-0.2,0.2-0.5,0.7-0.6c1.2-0.3,1.7-0.8,1.9-1.4c0.8-1.6,3.4-8.1,4.6-11.4c0.1-0.2,0.1-0.5,0.2-0.7
			c0-0.1,0.1-0.2,0.2-0.3c0.3-0.2,0.6-0.5,0.9-0.7c0.1-0.1,0.4-0.3,0.5-0.3C104.8,116.6,104.9,117.3,105.5,119z M105.4,124.9
			c-0.3-1.2-1.6-4.5-1.8-4.9c-0.1-0.2-0.3-0.1-0.3,0c-0.5,1.3-1.3,3.3-1.8,4.9c0,0.1,0,0.2,0.2,0.2c0.4,0,3.2,0.1,3.7,0
			C105.4,125.2,105.5,125,105.4,124.9z"/>
		<path class="st0" d="M130.6,123.5c-0.2,0.2-1.3,0.9-1.5,1c-0.1,0-0.1,0.2-0.1,0.4c0.3,0.7,2.1,3.5,3.3,4.8
			c1.2,1.4,1.9,1.7,2.9,1.9c0.2,0,0.3,0.2,0.3,0.4c0,0.5-1.1,0.6-1.4,0.6c-1.1,0-2.5-0.1-4.4-2.5c-0.9-1.2-2.3-3.3-2.8-3.9
			c-0.6-0.8-1.2-0.8-2-0.8c-0.2,0-0.3,0.2-0.3,0.4c0,2,0,3.2,0.1,4.1c0.1,0.9,0.4,1.2,1.5,1.5c0.5,0.1,0.7,0.3,0.7,0.5
			c0,0.3-0.4,0.4-0.8,0.4c-0.6,0-1.9-0.1-2.8-0.1c-0.8,0-1.2,0.1-2.1,0.1c-0.6,0-0.9-0.2-0.9-0.4c0-0.2,0.2-0.4,0.7-0.5
			c1-0.3,1.3-0.4,1.3-1.7c0-0.9,0-1.7,0-6.1c0-3,0-4-0.1-4.6c0-0.5-0.4-0.8-1.4-0.9c-0.4-0.1-0.7-0.3-0.7-0.5c0-0.4,0.5-0.5,1-0.5
			c1.3,0,1.9,0,2.2,0c0.9,0,1.9-0.1,3.1-0.1c2.2,0,3.1,0.5,3.7,0.9c1.2,0.9,1.5,1.9,1.5,3C131.7,121.8,131.3,122.8,130.6,123.5z
			 M125.9,117.9c-0.3,0-0.9,0.1-1.1,0.2c-0.1,0-0.3,0.3-0.3,0.5c0,1.4,0,4,0,5.3c0,0.1,0.1,0.2,0.2,0.3c0.5,0.1,1,0.2,1.5,0.2
			c0.4,0,1.8-0.4,2.3-0.9c0.4-0.4,0.8-1.2,0.8-2.2C129.4,119.4,128.5,117.9,125.9,117.9z"/>
		<path class="st0" d="M149.7,117.1c2.2,0,2.9-0.1,3.5-0.1c0.2,0,0.4,0,0.6,0.2c0.1,0.2,0.4,2,0.4,2.5c0,0.2-0.2,0.6-0.4,0.6
			c-0.3,0-0.5-0.3-1.1-1.4c-0.3-0.7-0.8-0.8-0.9-0.8c-1.4,0-3.3,0-3.7,0c-0.1,0-0.2,0.3-0.3,0.4c-0.1,0.7-0.1,2.9-0.1,4.6
			c0,0.2,0.1,0.7,0.3,0.7c0.2,0,1.2,0,1.6,0c1.6-0.1,1.9-0.3,2.2-1.1c0.2-0.5,0.3-0.7,0.6-0.7c0.3,0,0.4,0.3,0.4,1
			c0,0.3-0.1,0.7-0.1,1.2c0,0.5,0,1.3,0,1.7c0,0.6-0.2,0.8-0.4,0.8c-0.2,0-0.4-0.1-0.6-0.6c-0.2-0.7-0.4-1-1-1
			c-1-0.1-1.7-0.1-2.8-0.1c-0.1,0-0.3,0.4-0.3,0.6c0,2.3,0,3.1,0.1,3.7c0,0.7,0.2,1.2,0.3,1.3c0.2,0.2,0.9,0.5,2.8,0.5
			c1,0,1.3,0,1.9-0.2c0.7-0.2,1.1-0.7,1.6-1.5c0.4-0.7,0.6-1,0.9-1c0.4,0,0.4,0.6,0.3,1.1c-0.1,0.7-0.7,1.9-0.8,2.1
			c-0.1,0.3-0.7,0.5-0.8,0.5c-1,0-1.7-0.1-6.2-0.1c-1.6,0-3.2,0.1-4.2,0.1c-0.6,0-0.9-0.1-0.9-0.3c0-0.3,0.3-0.5,0.8-0.7
			c1.6-0.4,1.9-0.6,1.9-1.5c0.1-0.7,0.1-1.3,0.1-2.5c0-3.8,0-7.7-0.1-8.2c-0.1-0.8-0.6-1-1.6-1.2c-0.4-0.1-0.7-0.3-0.7-0.5
			c0-0.3,0.3-0.4,0.7-0.4c0.4,0,1.7,0.1,3.3,0.1H149.7z"/>
		<path class="st0" d="M165.3,117c0.1,0,1.7,0.1,2.7,0.1c1,0,2.1-0.1,2.6-0.1c0.5,0,0.7,0.1,0.7,0.4c0,0.2-0.2,0.4-0.7,0.5
			c-1.1,0.2-1.5,0.5-1.6,1.3c-0.1,0.6-0.1,1.4-0.1,4.7c0,3.8,0,5.4,0.1,6.3c0,0.2,0.4,0.7,1,0.9c1,0.2,3.1,0.1,3.4,0
			c1-0.3,1.6-0.9,2.3-2.3c0.2-0.4,0.4-0.6,0.6-0.6c0.2,0,0.4,0.4,0.4,0.8c0,0.6-0.6,2.3-0.8,2.8c-0.1,0.4-0.6,0.6-1.1,0.6
			c-0.9,0-3.9-0.1-7-0.1c-1.7,0-2.6,0.1-3.1,0.1c-0.5,0-0.8-0.2-0.8-0.4c0-0.2,0.3-0.5,0.7-0.6c1.6-0.4,1.8-0.9,1.9-1.4
			c0-0.3,0.1-2,0.1-5c0-4.5,0-4.9-0.1-5.6c-0.1-0.8-0.5-1.1-1.3-1.3c-0.5-0.2-0.7-0.3-0.7-0.6C164.6,117.2,164.8,117,165.3,117z"/>
		<path class="st0" d="M186.2,117c0.1,0,1.7,0.1,2.7,0.1c1,0,2.1-0.1,2.6-0.1c0.5,0,0.7,0.1,0.7,0.4c0,0.2-0.2,0.4-0.7,0.5
			c-1.1,0.2-1.5,0.5-1.6,1.3c-0.1,0.6-0.1,1.4-0.1,4.7c0,3.8,0,5.4,0.1,6.3c0,0.2,0.4,0.7,1,0.9c1,0.2,3.1,0.1,3.4,0
			c1-0.3,1.6-0.9,2.3-2.3c0.2-0.4,0.4-0.6,0.6-0.6c0.2,0,0.4,0.4,0.4,0.8c0,0.6-0.6,2.3-0.8,2.8c-0.1,0.4-0.6,0.6-1.1,0.6
			c-0.9,0-3.9-0.1-7-0.1c-1.7,0-2.6,0.1-3.1,0.1c-0.5,0-0.8-0.2-0.8-0.4c0-0.2,0.3-0.5,0.7-0.6c1.6-0.4,1.8-0.9,1.9-1.4
			c0.1-0.3,0.1-2,0.1-5c0-4.5,0-4.9-0.1-5.6c-0.1-0.8-0.5-1.1-1.3-1.3c-0.5-0.2-0.7-0.3-0.7-0.6C185.5,117.2,185.7,117,186.2,117z"
			/>
		<path class="st0" d="M215.9,119c1.3,3.6,3.4,8.9,3.9,10.4c0.5,1.3,0.7,1.4,2,1.9c0.5,0.2,0.7,0.4,0.7,0.7c0,0.1-0.2,0.3-0.6,0.3
			c-1.3,0-2.2-0.1-3.5-0.1c-1.1,0-1.1,0-1.9,0c-0.5,0-0.7-0.1-0.7-0.3c0-0.2,0.1-0.5,0.6-0.6c1.2-0.3,1.3-0.5,1-1.4
			c-0.2-0.7-0.8-2.3-1.1-3.1c0-0.1-0.3-0.3-0.6-0.3c-0.5,0-3.5,0-4.2,0c-0.1,0-0.3,0.2-0.4,0.3c-0.3,1-1,2.9-1,3.4
			c0,0.3,0,0.7,1.2,1c0.3,0.1,0.5,0.2,0.5,0.4c0,0.2-0.3,0.5-0.8,0.5c-0.3,0-1.3-0.1-2-0.1c-0.8,0-1.3,0.1-2.2,0.1
			c-0.4,0-0.8-0.1-0.8-0.4c0-0.2,0.2-0.5,0.7-0.6c1.2-0.3,1.7-0.8,1.9-1.4c0.8-1.6,3.4-8.1,4.6-11.4c0.1-0.2,0.1-0.5,0.2-0.7
			c0-0.1,0.1-0.2,0.2-0.3c0.3-0.2,0.6-0.5,0.9-0.7c0.1-0.1,0.4-0.3,0.5-0.3C215.2,116.6,215.3,117.3,215.9,119z M215.8,124.9
			c-0.3-1.2-1.6-4.5-1.8-4.9c-0.1-0.2-0.3-0.1-0.3,0c-0.5,1.3-1.3,3.3-1.8,4.9c0,0.1,0,0.2,0.2,0.2c0.4,0,3.2,0.1,3.7,0
			C215.8,125.2,215.9,125,215.8,124.9z"/>
	</g>
	<g>
		<g>
			<rect x="113.8" y="141.5" class="st0" width="25" height="0.1"/>
			<line class="st0" x1="113.8" y1="141.5" x2="138.8" y2="141.5"/>
			<path class="st0" d="M113.8,141.9c-0.1,0-0.3-0.1-0.3-0.3c0-0.2,0.1-0.3,0.3-0.3h25c0.1,0,0.3,0.1,0.3,0.3c0,0.2-0.1,0.3-0.3,0.3
				H113.8z"/>
		</g>
		<g>
			<rect x="117" y="143.7" class="st0" width="18.6" height="0.1"/>
			<line class="st0" x1="117" y1="143.8" x2="135.6" y2="143.8"/>
			<path class="st0" d="M117,144.1c-0.1,0-0.3-0.1-0.3-0.3c0-0.2,0.1-0.3,0.3-0.3h18.6c0.1,0,0.3,0.1,0.3,0.3c0,0.2-0.1,0.3-0.3,0.3
				H117z"/>
		</g>
	</g>
</g>
</svg>
