<svg id="Layer_1" data-name="Layer 1" xmlns="http://www.w3.org/2000/svg" viewBox="0 0 1000 1000"><defs><style>.cls-1{fill:#91e6d3;}.cls-2{fill:#fff;}</style></defs><title>200407WVV.ito_Visual_Image</title><path class="cls-1" d="M509.85,333.16a39.9,39.9,0,0,1-3.31,16.19,41.71,41.71,0,0,1-9,13.11,43.45,43.45,0,0,1-13.34,8.89,41.81,41.81,0,0,1-32.61,0,42.12,42.12,0,0,1-13.23-8.89,42.56,42.56,0,0,1-8.89-13.11,41,41,0,0,1,0-32.27A41.39,41.39,0,0,1,451.58,295a41.81,41.81,0,0,1,32.61,0,43.63,43.63,0,0,1,13.34,8.89,41.45,41.45,0,0,1,9,13.23A40.11,40.11,0,0,1,509.85,333.16ZM499.13,643.75H436.42V399.52h62.71Z"/><path class="cls-1" d="M665.38,643.75A106.06,106.06,0,0,1,623,635.2a110.35,110.35,0,0,1-58.26-58.27,106,106,0,0,1-8.55-42.41V462H525.82V400h30.33v-97.6h62V400h94.41v62H618.17v72.52a46.68,46.68,0,0,0,13.69,33.29,48.05,48.05,0,0,0,15,10.15,45.8,45.8,0,0,0,18.47,3.76h47.2v62Z"/><path class="cls-1" d="M983.5,519.47a131.42,131.42,0,0,1-9.81,51A127.23,127.23,0,0,1,947,611.25a124.63,124.63,0,0,1-39.56,27.14,123.89,123.89,0,0,1-97.15,0,125,125,0,0,1-66.47-68,131.42,131.42,0,0,1-9.81-51,133.51,133.51,0,0,1,9.81-51.54A126,126,0,0,1,770.62,427a124.54,124.54,0,0,1,39.68-27,121,121,0,0,1,48.46-9.8,127.87,127.87,0,0,1,48.69,9.23A117.68,117.68,0,0,1,947,425.63a124,124,0,0,1,26.68,40.82Q983.5,490.29,983.5,519.47Zm-62.71,0a72.43,72.43,0,0,0-4.91-27.25,64.56,64.56,0,0,0-13.34-21,57.76,57.76,0,0,0-19.72-13.46,64.31,64.31,0,0,0-48.12,0,56.66,56.66,0,0,0-19.61,13.46,64,64,0,0,0-13.11,21,73.83,73.83,0,0,0-4.79,27.25A70.34,70.34,0,0,0,802,545.69a65.75,65.75,0,0,0,13.11,21,61.39,61.39,0,0,0,19.61,14,57.47,57.47,0,0,0,24.06,5.13A61,61,0,0,0,882.82,581a59.79,59.79,0,0,0,19.72-13.46,63,63,0,0,0,13.34-21A72.68,72.68,0,0,0,920.79,519.47Z"/><rect class="cls-1" x="16.64" y="302.46" width="363.44" height="341.63" rx="70.29"/><path class="cls-2" d="M128.88,605.15a108.28,108.28,0,0,0,41.54,8.7,102.46,102.46,0,0,0,40.49-8.21,109.88,109.88,0,0,0,32-20.78c.8-.73-36.39-41-36.39-41a53.87,53.87,0,0,1-16.37,10.67,50.07,50.07,0,0,1-20.42,3.86,56.42,56.42,0,0,1-21.12-4.7,67.71,67.71,0,0,1-33.47-33.47,54.94,54.94,0,0,1-4.7-21.12,51.91,51.91,0,0,1,3.86-20.42,52.61,52.61,0,0,1,10.61-16.44s-40-36.9-40.7-36.1a103.19,103.19,0,0,0-20.36,32.4,108.62,108.62,0,0,0-7.65,41.05,111,111,0,0,0,8.7,41.54,114.4,114.4,0,0,0,25.33,37.4Q108.18,596.52,128.88,605.15Z"/><path class="cls-2" d="M264.44,343a107.87,107.87,0,0,0-41.54-8.7,102.36,102.36,0,0,0-40.49,8.21,109.73,109.73,0,0,0-32,20.77c-.8.73,36.38,41,36.38,41a53.84,53.84,0,0,1,16.37-10.68,50.27,50.27,0,0,1,20.42-3.86,56.43,56.43,0,0,1,21.13,4.7,67.92,67.92,0,0,1,33.47,33.47A55.13,55.13,0,0,1,282.9,449,52.09,52.09,0,0,1,279,469.45a52.65,52.65,0,0,1-10.61,16.45s40,36.89,40.7,36.1a103.6,103.6,0,0,0,20.36-32.41,108.59,108.59,0,0,0,7.65-41,111,111,0,0,0-8.7-41.54,114.5,114.5,0,0,0-25.33-37.4Q285.14,351.65,264.44,343Z"/></svg>